<svg
  xmlns="http://www.w3.org/2000/svg"
  width="100%"
  height="150"
  viewBox="0 0 1920 150"
  preserveAspectRatio="none"
  class="cave-ceiling"
>
  <path
    d="M0,0 
       L50,50 
       L100,20 
       L150,70 
       L200,30 
       L250,90 
       L300,40 
       L350,100 
       L400,60 
       L450,110 
       L500,50 
       L550,130 
       L600,70 
       L650,90 
       L700,20 
       L750,60 
       L800,40 
       L850,100 
       L900,30 
       L950,80 
       L1000,50 
       L1050,70 
       L1100,30 
       L1150,110 
       L1200,50 
       L1250,90 
       L1300,40 
       L1350,100 
       L1400,30 
       L1450,70 
       L1500,20 
       L1550,60 
       L1600,40 
       L1650,110 
       L1700,50 
       L1750,90 
       L1800,30 
       L1850,80 
       L1920,0 
       V0 H0 Z"
    fill="#545454"
  />
</svg>
