<svg xmlns="http://www.w3.org/2000/svg" viewBox="0 -0.5 173 10" shape-rendering="crispEdges">
<metadata>Made with Pixels to Svg https://codepen.io/shshaw/pen/XbxvNj</metadata>
<path stroke="#afafaf" d="M1 0h33M35 0h33M69 0h33M103 0h33M137 0h30M1 1h33M35 1h33M69 1h33M103 1h33M137 1h29M1 2h3M6 2h2M10 2h2M14 2h2M18 2h2M22 2h2M26 2h2M30 2h4M35 2h3M40 2h2M44 2h2M48 2h2M52 2h2M56 2h2M60 2h2M64 2h4M69 2h3M74 2h2M78 2h2M82 2h2M86 2h2M90 2h2M94 2h2M98 2h4M103 2h3M108 2h2M112 2h2M116 2h2M120 2h2M124 2h2M128 2h2M132 2h4M137 2h5M144 2h2M148 2h2M152 2h2M156 2h2M160 2h5M1 3h3M6 3h2M10 3h2M14 3h2M18 3h2M22 3h2M26 3h2M30 3h4M35 3h3M40 3h2M44 3h2M48 3h2M52 3h2M56 3h2M60 3h2M64 3h4M69 3h3M74 3h2M78 3h2M82 3h2M86 3h2M90 3h2M94 3h2M98 3h4M103 3h3M108 3h2M112 3h2M116 3h2M120 3h2M124 3h2M128 3h2M132 3h4M137 3h5M144 3h2M148 3h2M152 3h2M156 3h2M160 3h5M1 4h33M35 4h33M69 4h33M103 4h33M137 4h35M1 5h33M35 5h33M69 5h33M103 5h33M137 5h36M1 6h33M35 6h33M69 6h33M103 6h33M137 6h36M1 7h33M35 7h33M69 7h33M103 7h33M137 7h35" />
<path stroke="#ff7b01" d="M166 1h3M4 2h2M8 2h2M12 2h2M16 2h2M20 2h2M24 2h2M28 2h2M38 2h2M42 2h2M46 2h2M50 2h2M54 2h2M58 2h2M62 2h2M72 2h2M76 2h2M80 2h2M84 2h2M88 2h2M92 2h2M96 2h2M106 2h2M110 2h2M114 2h2M118 2h2M122 2h2M126 2h2M130 2h2M142 2h2M146 2h2M150 2h2M154 2h2M158 2h2M165 2h5M4 3h2M8 3h2M12 3h2M16 3h2M20 3h2M24 3h2M28 3h2M38 3h2M42 3h2M46 3h2M50 3h2M54 3h2M58 3h2M62 3h2M72 3h2M76 3h2M80 3h2M84 3h2M88 3h2M92 3h2M96 3h2M106 3h2M110 3h2M114 3h2M118 3h2M122 3h2M126 3h2M130 3h2M142 3h2M146 3h2M150 3h2M154 3h2M158 3h2M165 3h6" />
<path stroke="#7f7f7f" d="M0 5h1M34 5h1M68 5h1M102 5h1M136 5h1M0 6h1M34 6h1M68 6h1M102 6h1M136 6h1" />
<path stroke="#000000" d="M3 8h2M6 8h2M11 8h2M14 8h2M19 8h2M22 8h2M27 8h2M30 8h2M37 8h2M40 8h2M45 8h2M48 8h2M53 8h2M56 8h2M61 8h2M64 8h2M71 8h2M74 8h2M79 8h2M82 8h2M87 8h2M90 8h2M95 8h2M98 8h2M105 8h2M108 8h2M113 8h2M116 8h2M121 8h2M124 8h2M129 8h2M132 8h2M139 8h2M142 8h2M147 8h2M150 8h2M155 8h2M158 8h2M163 8h2M166 8h2M3 9h2M6 9h2M11 9h2M14 9h2M19 9h2M22 9h2M27 9h2M30 9h2M37 9h2M40 9h2M45 9h2M48 9h2M53 9h2M56 9h2M61 9h2M64 9h2M71 9h2M74 9h2M79 9h2M82 9h2M87 9h2M90 9h2M95 9h2M98 9h2M105 9h2M108 9h2M113 9h2M116 9h2M121 9h2M124 9h2M129 9h2M132 9h2M139 9h2M142 9h2M147 9h2M150 9h2M155 9h2M158 9h2M163 9h2M166 9h2" />
</svg>