<svg width="729" height="729" viewBox="0 0 729 729" fill="none" xmlns="http://www.w3.org/2000/svg">
<rect y="430" width="86" height="299" fill="#2C2C2C"/>
<rect x="129" y="274" width="128" height="455" fill="#2C2C2C"/>
<rect x="299" width="128" height="729" fill="#2C2C2C"/>
<rect x="470" y="131" width="128" height="598" fill="#2C2C2C"/>
<rect x="640" y="456" width="89" height="273" fill="#2C2C2C"/>
<rect x="14" y="451" width="12" height="20" fill="#FFC701"/>
<rect x="14" y="451" width="12" height="20" fill="#FFC701"/>
<rect x="56" y="482" width="12" height="20" fill="#FF7B01"/>
<rect x="20" y="580" width="12" height="20" fill="#FFC701"/>
<rect x="20" y="580" width="12" height="20" fill="#FFC701"/>
<rect x="149" y="300" width="12" height="20" fill="#FFC701"/>
<rect x="149" y="300" width="12" height="20" fill="#FFC701"/>
<rect x="208" y="327" width="12" height="20" fill="#FFC701"/>
<rect x="208" y="327" width="12" height="20" fill="#FFC701"/>
<rect x="172" y="365" width="12" height="20" fill="#FFC701"/>
<rect x="172" y="365" width="12" height="20" fill="#FF0101"/>
<rect x="220" y="420" width="12" height="20" fill="#FFC701"/>
<rect x="220" y="420" width="12" height="20" fill="#FFC701"/>
<rect x="155" y="461" width="12" height="20" fill="#FFC701"/>
<rect x="155" y="461" width="12" height="20" fill="#FFC701"/>
<rect x="193" y="512" width="12" height="20" fill="#FFC701"/>
<rect x="193" y="512" width="12" height="20" fill="#FFC701"/>
<rect x="220" y="600" width="12" height="20" fill="#FFC701"/>
<rect x="220" y="600" width="12" height="20" fill="#FFC701"/>
<rect x="161" y="610" width="12" height="20" fill="#FFC701"/>
<rect x="161" y="610" width="12" height="20" fill="#FFC701"/>
<rect x="320" y="34" width="12" height="20" fill="#FFC701"/>
<rect x="320" y="34" width="12" height="20" fill="#FFC701"/>
<rect x="384" y="73" width="12" height="20" fill="#FFC701"/>
<rect x="384" y="73" width="12" height="20" fill="#FFC701"/>
<rect x="342" y="178" width="12" height="20" fill="#FFC701"/>
<rect x="342" y="178" width="12" height="20" fill="#FFC701"/>
<rect x="384" y="307" width="12" height="20" fill="#FFC701"/>
<rect x="384" y="307" width="12" height="20" fill="#FFC701"/>
<rect x="396" y="131" width="12" height="20" fill="#FFC701"/>
<rect x="396" y="131" width="12" height="20" fill="#FFC701"/>
<rect x="342" y="264" width="12" height="20" fill="#FFC701"/>
<rect x="342" y="264" width="12" height="20" fill="#FFC701"/>
<rect x="320" y="365" width="12" height="20" fill="#FF7B01"/>
<rect x="384" y="410" width="12" height="20" fill="#FFC701"/>
<rect x="384" y="410" width="12" height="20" fill="#FFC701"/>
<rect x="345" y="472" width="12" height="20" fill="#FFC701"/>
<rect x="345" y="472" width="12" height="20" fill="#FFC701"/>
<rect x="396" y="502" width="12" height="20" fill="#FFC701"/>
<rect x="396" y="502" width="12" height="20" fill="#FFC701"/>
<rect x="338" y="570" width="12" height="20" fill="#FFC701"/>
<rect x="338" y="570" width="12" height="20" fill="#FFC701"/>
<rect x="387" y="610" width="12" height="20" fill="#FFC701"/>
<rect x="387" y="610" width="12" height="20" fill="#FFC701"/>
<rect x="502" y="168" width="12" height="20" fill="#FFC701"/>
<rect x="502" y="168" width="12" height="20" fill="#FFC701"/>
<rect x="557" y="198" width="12" height="20" fill="#FFC701"/>
<rect x="557" y="198" width="12" height="20" fill="#FFC701"/>
<rect x="522" y="264" width="12" height="20" fill="#FFC701"/>
<rect x="522" y="264" width="12" height="20" fill="#FFC701"/>
<rect x="569" y="327" width="12" height="20" fill="#FFC701"/>
<rect x="569" y="327" width="12" height="20" fill="#FFC701"/>
<rect x="502" y="356" width="12" height="20" fill="#FFC701"/>
<rect x="502" y="356" width="12" height="20" fill="#FFC701"/>
<rect x="557" y="410" width="12" height="20" fill="#FFC701"/>
<rect x="502" y="472" width="12" height="20" fill="#FFC701"/>
<rect x="502" y="472" width="12" height="20" fill="#FFC701"/>
<rect x="563" y="512" width="12" height="20" fill="#FFC701"/>
<rect x="563" y="512" width="12" height="20" fill="#FFC701"/>
<rect x="510" y="570" width="12" height="20" fill="#FFC701"/>
<rect x="510" y="570" width="12" height="20" fill="#FFC701"/>
<rect x="654" y="481" width="12" height="20" fill="#FFC701"/>
<rect x="654" y="481" width="12" height="20" fill="#FFC701"/>
<rect x="685" y="522" width="12" height="20" fill="#FF0101"/>
<rect x="685" y="573" width="12" height="20" fill="#FF7B01"/>
<rect x="710" y="620" width="12" height="20" fill="#FFC701"/>
<rect x="710" y="620" width="12" height="20" fill="#FFC701"/>
<rect x="653" y="620" width="12" height="20" fill="#FFC701"/>
<rect x="653" y="620" width="12" height="20" fill="#FFC701"/>
<rect x="685" y="650" width="12" height="20" fill="#FFC701"/>
<rect x="685" y="650" width="12" height="20" fill="#FFC701"/>
<rect x="61" y="626" width="12" height="20" fill="#FFC701"/>
<rect x="61" y="626" width="12" height="20" fill="#FFC701"/>
</svg>
