<?xml version="1.0" encoding="UTF-8"?>
<svg id="Layer_1" data-name="Layer 1" xmlns="http://www.w3.org/2000/svg" viewBox="0 0 960 960">
  <defs>
    <style>
      .cls-1 {
        fill: #f29111;
      }

      .cls-1, .cls-2 {
        stroke-width: 0px;
      }

      .cls-2 {
        fill: #00758f;
      }
    </style>
  </defs>
  <path id="path3414" class="cls-2" d="M397.29,578.09c-14.11,76.75-32.72,132.53-55.82,167.33-18,26.81-37.71,40.22-59.18,40.22-5.72,0-12.78-1.73-21.16-5.16v-18.5c4.09.6,8.89.92,14.41.92,10.02,0,18.09-2.78,24.23-8.32,7.35-6.75,11.03-14.34,11.03-22.74,0-5.74-2.87-17.53-8.59-35.35l-38.02-118.39h34.04l27.29,88.54c6.13,20.1,8.69,34.14,7.66,42.14,14.93-39.97,25.35-83.53,31.28-130.68h32.81M247,731.22h-34.64c-1.22-58.63-4.6-113.77-10.12-165.41h-.31l-52.75,165.41h-26.38l-52.43-165.41h-.31c-3.89,49.6-6.34,104.73-7.36,165.41h-31.59c2.04-73.8,7.15-142.97,15.33-207.55h42.94l49.98,152.5h.31l50.29-152.5h41.09c9,75.63,14.31,144.83,15.94,207.55"/>
  <path id="path3420" class="cls-1" d="M858.46,731.22h-98.43v-207.55h33.12v182.02h65.31v25.53M610.99,689.7c-8.38-13.53-12.58-35.24-12.58-65.18,0-52.26,15.85-78.41,47.53-78.41,16.57,0,28.72,6.25,36.5,18.75,8.37,13.54,12.57,35.06,12.57,64.58,0,52.68-15.85,79.03-47.53,79.03-16.56,0-28.72-6.25-36.49-18.77M734.26,736.23l-38.05-18.81c3.39-2.79,6.6-5.79,9.52-9.27,16.15-19.04,24.24-47.23,24.24-84.54,0-68.66-26.88-103.01-80.65-103.01-26.37,0-46.92,8.71-61.64,26.15-16.16,19.06-24.23,47.14-24.23,84.24s7.15,63.25,21.46,80.25c13.04,15.37,32.76,23.06,59.16,23.06,9.85,0,18.88-1.22,27.1-3.65l49.55,28.91,13.51-23.33M549.05,673.69c0,17.6-6.45,32.05-19.31,43.36-12.87,11.26-30.16,16.9-51.8,16.9-20.25,0-39.87-6.5-58.88-19.38l8.89-17.83c16.36,8.2,31.16,12.29,44.45,12.29,12.47,0,22.22-2.78,29.28-8.28,7.04-5.54,11.26-13.26,11.26-23.05,0-12.32-8.57-22.86-24.3-31.69-14.52-7.99-43.54-24.67-43.54-24.67-15.72-11.5-23.6-23.84-23.6-44.17,0-16.81,5.88-30.4,17.62-40.74,11.77-10.36,26.95-15.54,45.54-15.54s36.69,5.14,52.43,15.39l-7.99,17.81c-13.47-5.72-26.75-8.6-39.84-8.6-10.62,0-18.81,2.56-24.52,7.7-5.74,5.1-9.29,11.66-9.29,19.66,0,12.29,8.76,22.95,24.93,31.96,14.7,7.99,44.43,24.99,44.43,24.99,16.17,11.48,24.23,23.72,24.23,43.87"/>
  <path id="path3422" class="cls-1" d="M882.08,731.2h5.49v-21.12h7.18v-4.31h-20.13v4.31h7.46v21.12ZM923.84,731.2h5.17v-25.43h-7.78l-6.33,17.33-6.89-17.33h-7.5v25.43h4.89v-19.35h.28l7.22,19.35h3.73l7.21-19.35v19.35"/>
  <path id="path3424" class="cls-2" d="M583.22,174.21c-8.75-.13-16.38,3.17-20.32,12.86-6.75,16.31,10,32.35,15.76,40.63,4.25,5.76,9.75,12.29,12.74,18.8,1.75,4.26,2.26,8.79,4.02,13.29,4,11.03,7.74,23.33,13,33.61,2.74,5.27,5.74,10.79,9.24,15.53,2.02,2.78,5.51,4.01,6.26,8.54-3.49,5.01-3.76,12.54-5.76,18.81-9,28.34-5.5,63.44,7.26,84.25,3.99,6.27,13.51,20.06,26.27,14.78,11.25-4.51,8.75-18.8,12-31.33.75-3.03.25-5.02,1.74-7.02v.51c3.5,7.01,7.01,13.77,10.26,20.81,7.76,12.28,21.25,25.07,32.52,33.59,5.99,4.53,10.74,12.29,18.25,15.06v-.76h-.49c-1.51-2.25-3.75-3.26-5.76-5.01-4.5-4.52-9.49-10.04-13-15.05-10.5-14.04-19.77-29.59-28-45.64-4.01-7.79-7.51-16.31-10.76-24.08-1.5-3-1.5-7.52-4-9.02-3.76,5.51-9.25,10.28-12,17.03-4.76,10.8-5.25,24.08-7.02,37.88-.99.26-.49,0-.99.5-7.99-2-10.75-10.28-13.75-17.28-7.5-17.83-8.76-46.42-2.25-66.98,1.74-5.26,9.27-21.81,6.25-26.82-1.51-4.78-6.51-7.52-9.26-11.3-3.24-4.76-6.76-10.77-8.99-16.05-6.01-14.04-9.03-29.59-15.51-43.63-3-6.53-8.27-13.3-12.51-19.31-4.76-6.77-10.01-11.54-13.76-19.55-1.24-2.76-2.99-7.28-1-10.28.49-2.01,1.51-2.76,3.51-3.27,3.23-2.76,12.5.74,15.74,2.25,9.26,3.75,17.01,7.28,24.76,12.53,3.51,2.51,7.26,7.28,11.75,8.54h5.26c8,1.74,17.01.49,24.52,2.75,13.25,4.26,25.25,10.53,36.01,17.3,32.75,20.82,59.76,50.42,78.01,85.77,3.01,5.76,4.27,11.03,7.02,17.03,5.25,12.31,11.77,24.85,17.01,36.88,5.25,11.79,10.26,23.81,17.77,33.61,3.74,5.26,18.75,8.02,25.51,10.78,4.99,2.25,12.76,4.26,17.26,7.01,8.5,5.26,16.99,11.28,25,17.06,3.99,3.01,16.5,9.27,17.25,14.3h0c-20.02-.5-35.52,1.5-48.52,7.03-3.75,1.5-9.75,1.5-10.26,6.27,2.01,2,2.26,5.26,4.02,8.03,2.99,5.02,8.23,11.77,12.99,15.29,5.25,4.01,10.5,8.01,16.01,11.52,9.75,6.04,20.76,9.54,30.25,15.56,5.52,3.51,11,8.02,16.52,11.79,2.74,2,4.48,5.27,7.99,6.51v-.76c-1.76-2.25-2.25-5.51-3.99-8.03-2.5-2.49-5-4.76-7.51-7.26-7.26-9.78-16.27-18.3-26-25.32-8.01-5.53-25.53-13.06-28.76-22.31,0,0-.26-.26-.51-.51,5.5-.51,12.02-2.52,17.27-4.04,8.49-2.25,16.24-1.74,25-3.99,4.01-1.01,8.01-2.27,12.03-3.5v-2.27c-4.53-4.5-7.76-10.53-12.51-14.79-12.74-11.03-26.77-21.81-41.27-30.85-7.76-5.02-17.77-8.26-26.03-12.53-2.99-1.51-7.98-2.25-9.74-4.77-4.5-5.52-7.02-12.78-10.26-19.31-7.25-13.78-14.26-29.07-20.5-43.64-4.5-9.77-7.25-19.55-12.76-28.58-25.77-42.64-53.78-68.46-96.79-93.79-9.26-5.27-20.26-7.52-32-10.28-6.26-.26-12.51-.75-18.76-1-4.01-1.76-8.02-6.53-11.51-8.79-8.91-5.64-26.61-15.39-41.2-15.61h0ZM644.92,236.2c-4.24,0-7.24.52-10.26,1.26v.5h.49c2.02,4,5.53,6.78,8.01,10.29,2.01,4.01,3.77,8.01,5.77,12.03.25-.25.48-.51.48-.51,3.53-2.5,5.28-6.51,5.28-12.53-1.51-1.77-1.75-3.51-3.01-5.27-1.5-2.5-4.75-3.76-6.76-5.77Z"/>
</svg>