<?xml version="1.0" encoding="UTF-8"?>
<svg id="Layer_1" data-name="Layer 1" xmlns="http://www.w3.org/2000/svg" viewBox="0 0 960 960">
  <defs>
    <style>
      .cls-1 {
        fill: #222;
        stroke-width: 0px;
      }
    </style>
  </defs>
  <path class="cls-1" d="M45.72,551.28v-97.84h122.16v-5.72H45.72v-89.26h129.88v-5.72H40v204.26h136.75v-5.72H45.72ZM286.89,409.95l-50.64,66.66-49.49-66.66h-7.44l53.5,70.95-58.65,76.1h6.87l55.21-71.81,55.5,71.81h7.15l-58.93-76.1,53.78-70.95h-6.87ZM316.07,607.35v-91.55h.57c3.43,13.35,10.2,24.08,20.31,32.18,10.11,8.11,22.98,12.16,38.62,12.16,10.11,0,19.07-2.05,26.89-6.15,7.82-4.1,14.35-9.68,19.6-16.74,5.24-7.06,9.25-15.26,12.02-24.6,2.77-9.35,4.15-19.17,4.15-29.47,0-11.06-1.43-21.27-4.29-30.61-2.86-9.35-7.01-17.45-12.44-24.32-5.44-6.87-12.02-12.21-19.74-16.02-7.72-3.81-16.45-5.72-26.18-5.72-7.44,0-14.35,1.1-20.74,3.29-6.39,2.19-12.06,5.29-17.02,9.3-4.96,4.01-9.25,8.73-12.87,14.16-3.62,5.44-6.39,11.4-8.3,17.88h-.57v-41.2h-5.72v197.39h5.72ZM375.57,554.71c-17.93,0-32.33-6.15-43.2-18.45-10.87-12.3-16.31-29.99-16.31-53.07,0-9.54,1.33-18.6,4.01-27.18s6.53-16.12,11.59-22.6,11.3-11.63,18.74-15.45c7.44-3.81,15.83-5.72,25.17-5.72s17.88,1.91,25.03,5.72,13.06,9.01,17.74,15.59c4.67,6.58,8.2,14.11,10.58,22.6,2.38,8.49,3.58,17.5,3.58,27.03,0,8.58-1.1,17.12-3.29,25.6-2.19,8.49-5.58,16.12-10.16,22.89-4.58,6.77-10.44,12.3-17.59,16.59-7.15,4.29-15.78,6.44-25.89,6.44h0ZM469.69,557v-83.25c0-8.01,1.14-15.83,3.43-23.46,2.29-7.63,5.82-14.35,10.58-20.17,4.77-5.82,10.82-10.39,18.17-13.73,7.34-3.34,16.07-4.72,26.18-4.15v-5.72c-8.77-.19-16.45.76-23.03,2.86-6.58,2.1-12.25,4.96-17.02,8.58s-8.58,7.87-11.44,12.73c-2.86,4.86-4.96,10.06-6.29,15.59h-.57v-36.33h-5.72v147.04h5.72ZM535.2,484.62h123.01c.38-10.11-.62-19.83-3-29.18-2.38-9.35-6.2-17.64-11.44-24.89-5.24-7.25-12.02-13.06-20.31-17.45-8.3-4.39-18.17-6.58-29.61-6.58-8.2,0-16.21,1.72-24.03,5.15-7.82,3.43-14.69,8.44-20.6,15.02-5.91,6.58-10.68,14.64-14.3,24.17-3.62,9.54-5.44,20.41-5.44,32.61,0,10.87,1.24,21.03,3.72,30.47,2.48,9.44,6.29,17.64,11.44,24.6,5.15,6.96,11.78,12.35,19.88,16.16,8.11,3.81,17.88,5.63,29.32,5.44,16.78,0,30.9-4.72,42.34-14.16,11.44-9.44,18.21-22.74,20.31-39.91h-5.72c-2.48,16.21-8.82,28.37-19.02,36.48-10.2,8.11-23.03,12.16-38.48,12.16-10.49,0-19.36-1.81-26.61-5.44s-13.16-8.58-17.74-14.88c-4.58-6.29-7.96-13.68-10.16-22.17-2.19-8.49-3.39-17.69-3.58-27.61h0ZM652.5,478.9h-117.29c.57-10.3,2.48-19.55,5.72-27.75,3.24-8.2,7.49-15.21,12.73-21.03,5.24-5.82,11.35-10.25,18.31-13.3,6.96-3.05,14.45-4.58,22.46-4.58,9.54,0,17.93,1.76,25.17,5.29s13.3,8.34,18.17,14.45c4.86,6.1,8.53,13.21,11.01,21.31s3.72,16.64,3.72,25.6h0ZM776.94,453.44h5.72c0-16.4-4.77-28.32-14.3-35.76s-22.5-11.16-38.91-11.16c-9.15,0-16.88,1.14-23.17,3.43-6.29,2.29-11.44,5.24-15.45,8.87-4.01,3.62-6.87,7.63-8.58,12.02-1.72,4.39-2.57,8.58-2.57,12.59,0,8.01,1.43,14.4,4.29,19.17s7.34,8.49,13.45,11.16c4.2,1.91,8.96,3.62,14.3,5.15,5.34,1.53,11.54,3.15,18.6,4.86,6.29,1.53,12.49,3.05,18.6,4.58,6.1,1.53,11.49,3.58,16.16,6.15,4.67,2.57,8.49,5.86,11.44,9.87,2.96,4.01,4.43,9.25,4.43,15.73s-1.48,11.63-4.43,16.02c-2.96,4.39-6.72,7.96-11.3,10.73-4.58,2.77-9.68,4.77-15.31,6.01-5.63,1.24-11.11,1.86-16.45,1.86-17.36,0-30.66-3.86-39.91-11.59-9.25-7.72-13.87-19.88-13.87-36.48h-5.72c0,18.5,5.01,32.04,15.02,40.62,10.01,8.58,24.84,12.87,44.49,12.87,6.29,0,12.64-.72,19.02-2.15,6.39-1.43,12.11-3.77,17.16-7.01,5.05-3.24,9.15-7.44,12.3-12.59,3.15-5.15,4.72-11.44,4.72-18.88s-1.38-12.78-4.15-17.16c-2.77-4.39-6.39-8.01-10.87-10.87-4.48-2.86-9.54-5.1-15.16-6.72-5.63-1.62-11.3-3.19-17.02-4.72-8.01-2.1-15.02-3.91-21.03-5.44-6.01-1.53-11.59-3.34-16.74-5.44-4.96-2.1-8.92-5.1-11.87-9.01-2.96-3.91-4.43-9.49-4.43-16.74,0-1.34.38-3.72,1.14-7.15.76-3.43,2.57-6.91,5.44-10.44s7.25-6.68,13.16-9.44c5.91-2.77,14.02-4.15,24.32-4.15,7.06,0,13.49.76,19.31,2.29,5.82,1.53,10.82,3.96,15.02,7.3,4.2,3.34,7.44,7.58,9.73,12.73,2.29,5.15,3.43,11.44,3.43,18.88h0ZM909.39,453.44h5.72c0-16.4-4.77-28.32-14.3-35.76-9.54-7.44-22.5-11.16-38.91-11.16-9.15,0-16.88,1.14-23.17,3.43-6.29,2.29-11.44,5.24-15.45,8.87-4.01,3.62-6.87,7.63-8.58,12.02-1.72,4.39-2.57,8.58-2.57,12.59,0,8.01,1.43,14.4,4.29,19.17s7.34,8.49,13.45,11.16c4.2,1.91,8.96,3.62,14.3,5.15,5.34,1.53,11.54,3.15,18.6,4.86,6.29,1.53,12.49,3.05,18.6,4.58,6.1,1.53,11.49,3.58,16.16,6.15,4.67,2.57,8.49,5.86,11.44,9.87,2.96,4.01,4.43,9.25,4.43,15.73s-1.48,11.63-4.43,16.02c-2.96,4.39-6.72,7.96-11.3,10.73-4.58,2.77-9.68,4.77-15.31,6.01-5.63,1.24-11.11,1.86-16.45,1.86-17.36,0-30.66-3.86-39.91-11.59-9.25-7.72-13.87-19.88-13.87-36.48h-5.72c0,18.5,5.01,32.04,15.02,40.62,10.01,8.58,24.84,12.87,44.49,12.87,6.29,0,12.64-.72,19.02-2.15,6.39-1.43,12.11-3.77,17.16-7.01,5.05-3.24,9.15-7.44,12.3-12.59,3.15-5.15,4.72-11.44,4.72-18.88s-1.38-12.78-4.15-17.16c-2.77-4.39-6.39-8.01-10.87-10.87-4.48-2.86-9.54-5.1-15.16-6.72-5.63-1.62-11.3-3.19-17.02-4.72-8.01-2.1-15.02-3.91-21.03-5.44-6.01-1.53-11.59-3.34-16.74-5.44-4.96-2.1-8.92-5.1-11.87-9.01-2.96-3.91-4.43-9.49-4.43-16.74,0-1.34.38-3.72,1.14-7.15.76-3.43,2.57-6.91,5.44-10.44s7.25-6.68,13.16-9.44c5.91-2.77,14.02-4.15,24.32-4.15,7.06,0,13.49.76,19.31,2.29,5.82,1.53,10.82,3.96,15.02,7.3,4.2,3.34,7.44,7.58,9.73,12.73,2.29,5.15,3.43,11.44,3.43,18.88h0Z"/>
</svg>