<?xml version="1.0" encoding="UTF-8"?>
<svg id="Layer_1" data-name="Layer 1" xmlns="http://www.w3.org/2000/svg" viewBox="0 0 960 960">
  <defs>
    <style>
      .cls-1 {
        fill: #f16529;
      }

      .cls-1, .cls-2, .cls-3, .cls-4, .cls-5 {
        stroke-width: 0px;
      }

      .cls-3 {
        fill: #e44d26;
      }

      .cls-4 {
        fill: #fff;
      }

      .cls-5 {
        fill: #ebebeb;
      }
    </style>
  </defs>
  <path class="cls-2" d="M221.53,31.42h40.29v39.94h37.14V31.42h40.29v120.87h-40.29v-40.29h-36.79v40.29h-40.64M392.5,71.71h-35.56V31.42h111.58v40.29h-35.73v80.58h-40.29M486.21,31.42h42.22l25.93,42.57,25.93-42.57h42.22v120.87h-40.29v-59.91l-28.2,43.44-28.2-43.44v59.91h-39.59M642.47,31.42h40.29v80.93h57.11v39.94h-97.4"/>
  <path class="cls-3" d="M220.13,856.47l-57.81-648.83h635.52l-57.81,648.48-260.48,72.17"/>
  <path class="cls-1" d="M480.08,873.11V260.89h259.78l-49.57,553.54"/>
  <path class="cls-5" d="M280.39,340.24h199.69v79.53h-112.46l7.36,81.45h105.1v79.35h-177.97M305.61,620.52h79.88l5.61,63.59,88.99,23.82v83.03l-163.26-45.54"/>
  <path class="cls-4" d="M679.08,340.24h-199.34v79.53h191.99M664.54,501.23h-184.81v79.53h98.1l-9.28,103.35-88.81,23.82v82.68l162.91-45.19"/>
</svg>