<?xml version="1.0" encoding="UTF-8"?>
<svg id="Layer_1" data-name="Layer 1" xmlns="http://www.w3.org/2000/svg" viewBox="0 0 960 960">
  <defs>
    <style>
      .cls-1 {
        fill: #004482;
      }

      .cls-1, .cls-2, .cls-3, .cls-4 {
        stroke-width: 0px;
      }

      .cls-2 {
        fill: #fff;
      }

      .cls-3 {
        fill: #659ad2;
      }

      .cls-4 {
        fill: #00599c;
      }
    </style>
  </defs>
  <path class="cls-4" d="M870.24,705.12c6.28-10.88,10.19-23.14,10.19-34.16v-382.21c0-11.01-3.9-23.27-10.18-34.15l-390.16,225.26,390.16,225.26Z"/>
  <path class="cls-1" d="M514.75,922.12l331.01-191.1c9.54-5.51,18.2-15.01,24.48-25.9l-390.16-225.26-390.16,225.26c6.28,10.88,14.95,20.39,24.48,25.89l331.01,191.1c19.07,11.01,50.27,11.01,69.34,0Z"/>
  <path class="cls-3" d="M870.25,254.59c-6.29-10.89-14.95-20.39-24.49-25.9L514.75,37.59c-19.07-11.01-50.27-11.01-69.34,0L114.41,228.7c-19.07,11.01-34.67,38.03-34.67,60.05v382.21c0,11.01,3.9,23.27,10.19,34.16l390.16-225.26,390.16-225.26Z"/>
  <path class="cls-2" d="M480.08,746.75c-147.17,0-266.9-119.73-266.9-266.9s119.73-266.9,266.9-266.9c94.96,0,183.53,51.1,231.13,133.37l-115.51,66.84c-23.82-41.18-68.13-66.76-115.62-66.76-73.59,0-133.45,59.86-133.45,133.45s59.86,133.45,133.45,133.45c47.5,0,91.81-25.58,115.63-66.76l115.51,66.84c-47.6,82.27-136.17,133.38-231.14,133.38Z"/>
  <polygon class="cls-2" points="746.98 465.03 717.32 465.03 717.32 435.37 687.67 435.37 687.67 465.03 658.02 465.03 658.02 494.68 687.67 494.68 687.67 524.34 717.32 524.34 717.32 494.68 746.98 494.68 746.98 465.03"/>
  <polygon class="cls-2" points="858.19 465.03 828.53 465.03 828.53 435.37 798.88 435.37 798.88 465.03 769.22 465.03 769.22 494.68 798.88 494.68 798.88 524.34 828.53 524.34 828.53 494.68 858.19 494.68 858.19 465.03"/>
</svg>