<?xml version="1.0" encoding="UTF-8"?>
<svg id="Layer_1" data-name="Layer 1" xmlns="http://www.w3.org/2000/svg" viewBox="0 0 960 960">
  <defs>
    <style>
      .cls-1 {
        fill: rgba(235, 235, 235, 0);
      }

      .cls-1, .cls-2 {
        isolation: isolate;
        opacity: .99;
      }

      .cls-3 {
        fill: #fdd83c;
      }

      .cls-4 {
        fill: #f7df1e;
      }

      .cls-2 {
        fill: rgba(235, 235, 235, .92);
      }

      .cls-5 {
        fill: #d4b830;
      }
    </style>
  </defs>
  <g>
    <path class="cls-4" d="m25.09,262.66h447.03v447.03H25.09v-447.03Z"/>
    <path d="m142.63,636.23l34.21-20.7c6.6,11.7,12.6,21.6,27,21.6s22.51-5.4,22.51-26.4v-142.84h42.01v143.43c0,43.51-25.5,63.32-62.71,63.32-33.61,0-53.11-17.4-63.02-38.41"/>
    <path d="m291.18,631.72l34.21-19.8c9,14.71,20.71,25.51,41.41,25.51,17.41,0,28.51-8.7,28.51-20.71,0-14.4-11.4-19.51-30.61-27.9l-10.5-4.5c-30.31-12.9-50.41-29.1-50.41-63.31,0-31.51,24.01-55.51,61.52-55.51,26.71,0,45.91,9.3,59.71,33.61l-32.71,21c-7.2-12.9-15-18-27-18s-20.11,7.8-20.11,18c0,12.6,7.8,17.71,25.8,25.51l10.5,4.5c35.71,15.3,55.81,30.91,55.81,66.01,0,37.81-29.71,58.51-69.62,58.51s-64.22-18.6-76.52-42.91"/>
  </g>
  
</svg>