<?xml version="1.0" encoding="UTF-8"?>
<svg id="Layer_1" data-name="Layer 1" xmlns="http://www.w3.org/2000/svg" viewBox="0 0 960 400">
  <defs>
    <style>
      .cls-1 {
        fill: #0e0c16;
      }

      .cls-2 {
        fill: #fff;
      }

      .cls-3 {
        fill: #15293d;
      }

      .cls-4 {
        fill: #6b6e7f;
      }

      .cls-5 {
        fill-rule: evenodd;
      }

      .cls-5, .cls-6 {
        fill: #00acd7;
      }

      .cls-7 {
        fill: #b5a4a8;
      }

      .cls-8 {
        fill: #c9b8bc;
      }

      .cls-9 {
        fill: #333;
      }

      .cls-10 {
        fill: #132433;
      }

      .cls-11 {
        fill: #282b3a;
      }

      .cls-12 {
        fill: #79d4fd;
      }

      .cls-13 {
        fill: #f0f4fb;
      }

      .cls-14 {
        fill: #f9fafa;
      }

      .cls-15 {
        fill: #19364e;
      }

      .cls-16 {
        fill: #67d3fd;
      }
    </style>
  </defs>
  
  <g>
    <path class="cls-5" d="m90.03,155.42c-1.79,0-2.24-.89-1.34-2.24l9.39-12.08c.89-1.34,3.13-2.24,4.92-2.24h159.67c1.79,0,2.24,1.34,1.34,2.68l-7.6,11.63c-.89,1.34-3.13,2.68-4.47,2.68l-161.9-.45Z"/>
    <path class="cls-5" d="m22.49,196.56c-1.79,0-2.24-.89-1.34-2.24l9.39-12.08c.89-1.34,3.13-2.24,4.92-2.24h203.95c1.79,0,2.68,1.34,2.24,2.68l-3.58,10.73c-.45,1.79-2.24,2.68-4.03,2.68l-211.55.45Z"/>
    <path class="cls-5" d="m130.73,237.71c-1.79,0-2.24-1.34-1.34-2.68l6.26-11.18c.89-1.34,2.68-2.68,4.47-2.68h89.45c1.79,0,2.68,1.34,2.68,3.13l-.89,10.73c0,1.79-1.79,3.13-3.13,3.13l-97.5-.45Z"/>
    <g>
      <path class="cls-5" d="m594.97,147.37c-28.18,7.16-47.41,12.52-75.14,19.68-6.71,1.79-7.16,2.24-12.97-4.47-6.71-7.6-11.63-12.52-21.02-17-28.18-13.86-55.46-9.84-80.95,6.71-30.41,19.68-46.07,48.75-45.62,84.98.45,35.78,25.05,65.3,60.38,70.22,30.41,4.03,55.91-6.71,76.03-29.52,4.03-4.92,7.6-10.29,12.08-16.55h-86.32c-9.39,0-11.63-5.81-8.5-13.42,5.81-13.86,16.55-37.12,22.81-48.75,1.34-2.68,4.47-7.16,11.18-7.16h162.8c-.89,12.08-.89,24.15-2.68,36.23-4.92,32.2-17,61.72-36.67,87.66-32.2,42.49-74.24,68.88-127.47,76.03-43.83,5.81-84.53-2.68-120.31-29.52-33.1-25.05-51.88-58.14-56.8-99.29-5.81-48.75,8.5-92.58,38.02-131.04,31.75-41.59,73.8-67.98,125.23-77.37,42.04-7.6,82.29-2.68,118.52,21.92,23.7,15.65,40.7,37.12,51.88,63.06,2.68,4.03.89,6.26-4.47,7.6Z"/>
      <path class="cls-6" d="m743.01,394.69c-40.7-.89-77.82-12.52-109.13-39.36-26.39-22.81-42.94-51.88-48.3-86.32-8.05-50.54,5.81-95.26,36.23-135.07,32.65-42.94,72.01-65.3,125.23-74.69,45.62-8.05,88.56-3.58,127.47,22.81,35.33,24.15,57.25,56.8,63.06,99.74,7.6,60.38-9.84,109.58-51.43,151.62-29.52,29.97-65.75,48.75-107.34,57.25-12.08,2.24-24.15,2.68-35.78,4.03Zm106.45-180.69c-.45-5.81-.45-10.29-1.34-14.76-8.05-44.28-48.75-69.32-91.24-59.48-41.59,9.39-68.43,35.78-78.27,77.82-8.05,34.89,8.94,70.22,41.15,84.53,24.6,10.73,49.2,9.39,72.9-2.68,35.33-18.34,54.56-46.96,56.8-85.42h0Z"/>
    </g>
  </g>
</svg>