<?xml version="1.0" encoding="UTF-8"?>
<svg id="Layer_1" data-name="Layer 1" xmlns="http://www.w3.org/2000/svg" xmlns:xlink="http://www.w3.org/1999/xlink" viewBox="0 0 960 960">
  <defs>
    <style>
      .cls-1 {
        fill: url(#linear-gradient-2);
      }

      .cls-2 {
        fill: url(#radial-gradient);
        isolation: isolate;
        opacity: .44;
      }

      .cls-3 {
        fill: #1e2933;
      }

      .cls-4 {
        fill: url(#linear-gradient);
      }
    </style>
    <linearGradient id="linear-gradient" x1="-51.17" y1="444.58" x2="161.13" y2="261.92" gradientTransform="translate(41.48 610.72) scale(.56 -.57)" gradientUnits="userSpaceOnUse">
      <stop offset="0" stop-color="#5a9fd4"/>
      <stop offset="1" stop-color="#306998"/>
    </linearGradient>
    <linearGradient id="linear-gradient-2" x1="243.21" y1="151.39" x2="167.4" y2="258.64" gradientTransform="translate(41.48 610.72) scale(.56 -.57)" gradientUnits="userSpaceOnUse">
      <stop offset="0" stop-color="#ffd43b"/>
      <stop offset="1" stop-color="#ffe873"/>
    </linearGradient>
    <radialGradient id="radial-gradient" cx="-1094.91" cy="664.1" fx="-1094.91" fy="664.1" r="56.55" gradientTransform="translate(827.12 337.98) rotate(-90) scale(.24 -1.05)" gradientUnits="userSpaceOnUse">
      <stop offset="0" stop-color="#b8b8b8" stop-opacity=".5"/>
      <stop offset="1" stop-color="#7f7f7f" stop-opacity="0"/>
    </radialGradient>
  </defs>
  <path id="path46" class="cls-3" d="m366.62,460.11c0-28.36-8.09-42.92-24.26-43.71-6.43-.3-12.72.72-18.83,3.09-4.88,1.75-8.16,3.47-9.89,5.22v67.69c10.35,6.49,19.53,9.51,27.54,9.03,16.95-1.12,25.43-14.88,25.43-41.32Zm19.95,1.18c0,14.41-3.38,26.36-10.17,35.87-7.57,10.76-18.07,16.31-31.49,16.61-10.12.32-20.54-2.84-31.26-9.49v61.52l-17.35-6.19v-136.55c2.85-3.49,6.51-6.49,10.95-9.03,10.33-6.02,22.87-9.11,37.64-9.26l.25.25c13.5-.17,23.9,5.37,31.2,16.61,6.81,10.31,10.23,23.52,10.23,39.67Z"/>
  <path id="path48" class="cls-3" d="m492.59,501.66c0,19.32-1.94,32.71-5.81,40.14-3.89,7.44-11.29,13.38-22.23,17.8-8.86,3.49-18.45,5.39-28.74,5.71l-2.87-10.93c10.46-1.42,17.82-2.85,22.09-4.27,8.41-2.85,14.18-7.21,17.35-13.06,2.54-4.76,3.8-13.86,3.8-27.31v-4.52c-11.86,5.39-24.29,8.07-37.3,8.07-8.54,0-16.08-2.67-22.57-8.07-7.29-5.86-10.93-13.3-10.93-22.32v-72.2l17.35-5.94v72.68c0,7.76,2.51,13.74,7.52,17.94,5.01,4.2,11.5,6.21,19.46,6.05,7.95-.17,16.47-3.24,25.53-9.26v-84.79h17.35v94.28Z"/>
  <path id="path50" class="cls-3" d="m560.31,512.83c-2.07.17-3.97.24-5.71.24-9.81,0-17.46-2.33-22.93-7.02-5.45-4.69-8.18-11.16-8.18-19.42v-68.33h-11.88v-10.91h11.88v-28.98l17.33-6.17v35.15h19.49v10.91h-19.49v67.86c0,6.51,1.75,11.12,5.24,13.82,3,2.22,7.76,3.49,14.26,3.81v9.04Z"/>
  <path id="path52" class="cls-3" d="m665.36,511.4h-17.35v-66.96c0-6.81-1.6-12.68-4.76-17.58-3.66-5.54-8.75-8.31-15.28-8.31-7.95,0-17.9,4.2-29.84,12.58v80.27h-17.35v-160.06l17.35-5.47v72.9c11.09-8.07,23.2-12.11,36.35-12.11,9.19,0,16.63,3.09,22.32,9.26,5.71,6.17,8.56,13.86,8.56,23.04v72.43h0Z"/>
  <path id="path54" class="cls-3" d="m757.56,457.38c0-10.89-2.07-19.89-6.19-27.01-4.9-8.67-12.51-13.25-22.8-13.72-19.02,1.1-28.51,14.73-28.51,40.85,0,11.98,1.97,21.98,5.96,30.01,5.09,10.23,12.72,15.28,22.89,15.11,19.09-.15,28.64-15.22,28.64-45.23Zm19,.11c0,15.51-3.97,28.41-11.88,38.72-8.71,11.54-20.75,17.33-36.1,17.33s-27.08-5.79-35.65-17.33c-7.76-10.31-11.63-23.21-11.63-38.72,0-14.58,4.2-26.84,12.58-36.82,8.86-10.59,20.52-15.91,34.92-15.91s26.14,5.31,35.17,15.91c8.39,9.98,12.58,22.25,12.58,36.82Z"/>
  <path id="path56" class="cls-3" d="m876.02,511.4h-17.35v-70.76c0-7.76-2.34-13.82-7-18.18-4.67-4.35-10.9-6.45-18.66-6.28-8.24.15-16.08,2.85-23.52,8.07v87.16h-17.35v-89.3c9.98-7.27,19.17-12.01,27.56-14.23,7.91-2.07,14.9-3.09,20.91-3.09,4.12,0,7.99.4,11.63,1.2,6.82,1.57,12.36,4.5,16.63,8.79,4.77,4.74,7.14,10.44,7.14,17.1v79.55Z"/>
  <path id="path1948" class="cls-4" d="m124.95,351.98c-8.93.04-17.45.8-24.95,2.13-22.09,3.9-26.11,12.07-26.11,27.14v19.9h52.21v6.63H54.3c-15.17,0-28.46,9.12-32.62,26.47-4.79,19.89-5.01,32.3,0,53.07,3.71,15.46,12.58,26.47,27.75,26.47h17.95v-23.85c0-17.23,14.91-32.44,32.62-32.44h52.15c14.52,0,26.11-11.95,26.11-26.53v-49.72c0-14.15-11.94-24.78-26.11-27.14-8.97-1.49-18.28-2.17-27.2-2.13Zm-28.24,16c5.39,0,9.8,4.48,9.8,9.98s-4.4,9.92-9.8,9.92-9.8-4.43-9.8-9.92,4.39-9.98,9.8-9.98Z"/>
  <path id="path1950" class="cls-1" d="m184.77,407.78v23.19c0,17.98-15.24,33.1-32.62,33.1h-52.15c-14.29,0-26.11,12.23-26.11,26.53v49.72c0,14.15,12.3,22.47,26.11,26.53,16.53,4.86,32.38,5.74,52.15,0,13.14-3.81,26.11-11.47,26.11-26.53v-19.9h-52.15v-6.63h78.26c15.18,0,20.83-10.58,26.11-26.47,5.45-16.36,5.22-32.08,0-53.07-3.75-15.1-10.91-26.47-26.11-26.47h-19.59Zm-29.33,125.91c5.41,0,9.8,4.43,9.8,9.92s-4.39,9.98-9.8,9.98-9.8-4.48-9.8-9.98,4.4-9.92,9.8-9.92Z"/>
  <path id="text3004" class="cls-3" d="m909.8,391.92h3.04v-19.08h7.2v-2.27h-17.45v2.27h7.21v19.08m12.94,0h2.6v-17.42l5.64,17.42h2.89l5.88-17.36v17.36h2.84v-21.35h-3.75l-6.42,18.29-5.48-18.29h-4.2v21.35"/>
  <path id="path1894" class="cls-2" d="m196.67,600.65c0,7.49-31.33,13.57-69.97,13.57s-69.97-6.07-69.97-13.57,31.33-13.57,69.97-13.57,69.97,6.07,69.97,13.57h0Z"/>
</svg>