<?xml version="1.0" encoding="UTF-8"?>
<svg id="Layer_1" data-name="Layer 1" xmlns="http://www.w3.org/2000/svg" viewBox="0 0 960 960">
  <defs>
    <style>
      .cls-1, .cls-2, .cls-3, .cls-4, .cls-5 {
        stroke-width: 0px;
      }

      .cls-2 {
        fill: #2965f1;
      }

      .cls-3 {
        fill: #fff;
      }

      .cls-4 {
        fill: #264de4;
      }

      .cls-5 {
        fill: #ebebeb;
      }
    </style>
  </defs>
  <g id="layer1">
    <g id="g3013">
      <polygon id="polygon2989" class="cls-4" points="790.41 214 733.86 847.41 479.7 917.88 226.24 847.51 169.76 214 790.41 214"/>
      <polygon id="polygon2991" class="cls-2" points="685.46 807.08 733.78 265.8 480.08 265.8 480.08 864.02 685.46 807.08"/>
      <polygon id="polygon2993" class="cls-5" points="299.25 500.76 306.21 578.46 480.08 578.46 480.08 500.76 299.25 500.76"/>
      <polygon id="polygon2995" class="cls-5" points="480.08 343.49 479.81 343.49 285.25 343.49 292.32 421.19 480.08 421.19 480.08 343.49"/>
      <polygon id="polygon2997" class="cls-5" points="480.08 783.39 480.08 702.55 479.74 702.64 393.21 679.27 387.68 617.31 345.63 617.31 309.68 617.31 320.57 739.3 479.73 783.49 480.08 783.39"/>
      <path id="path2999" class="cls-1" d="M315.83,41.83h94.11v39.35h-54.75v39.35h54.75v39.35h-94.11V41.83Z"/>
      <path id="path3001" class="cls-1" d="M428.75,41.83h94.11v34.22h-54.75v6.84h54.75v78.71h-94.11v-35.93h54.75v-6.84h-54.75V41.83Z"/>
      <path id="path3003" class="cls-1" d="M541.68,41.83h94.11v34.22h-54.75v6.84h54.75v78.71h-94.11v-35.93h54.75v-6.84h-54.75V41.83Z"/>
      <polygon id="polygon3005" class="cls-3" points="575.49 578.46 566.47 679.22 479.81 702.61 479.81 783.45 639.1 739.3 640.27 726.18 658.53 521.62 660.42 500.76 674.45 343.49 479.81 343.49 479.81 421.19 589.3 421.19 582.23 500.76 479.81 500.76 479.81 578.46 575.49 578.46"/>
    </g>
  </g>
</svg>