<?xml version="1.0" encoding="UTF-8"?>
<svg id="Layer_1" data-name="Layer 1" xmlns="http://www.w3.org/2000/svg" xmlns:xlink="http://www.w3.org/1999/xlink" viewBox="0 0 960 960">
  <defs>
    <style>
      .cls-1 {
        clip-path: url(#clippath-2);
      }

      .cls-2, .cls-3, .cls-4, .cls-5, .cls-6, .cls-7 {
        stroke-width: 0px;
      }

      .cls-3 {
        fill: none;
      }

      .cls-8 {
        clip-path: url(#clippath-1);
      }

      .cls-4 {
        fill: #6082bb;
      }

      .cls-5 {
        fill: #fff;
      }

      .cls-9 {
        clip-path: url(#clippath);
      }

      .cls-6 {
        fill: url(#radial-gradient);
      }

      .cls-7 {
        fill: #777bb3;
      }
    </style>
    <clipPath id="clippath">
      <path class="cls-3" d="M65.02,710.6c0,122.5,188.79,221.81,421.67,221.81h0c232.88,0,421.67-99.31,421.67-221.81h0c0-122.5-188.79-221.81-421.67-221.81h0c-232.88,0-421.67,99.31-421.67,221.81"/>
    </clipPath>
    <radialGradient id="radial-gradient" cx="1.22" cy="959.92" fx="1.22" fy="959.92" r="1.22" gradientTransform="translate(-235.32 436198.21) scale(453.82 -453.82)" gradientUnits="userSpaceOnUse">
      <stop offset="0" stop-color="#aeb2d5"/>
      <stop offset=".3" stop-color="#aeb2d5"/>
      <stop offset=".75" stop-color="#484c89"/>
      <stop offset="1" stop-color="#484c89"/>
    </radialGradient>
    <clipPath id="clippath-1">
      <rect class="cls-3" x="47.45" y="463.53" width="878.47" height="494.14"/>
    </clipPath>
    <clipPath id="clippath-2">
      <rect class="cls-3" x="47.45" y="463.53" width="878.47" height="494.14"/>
    </clipPath>
  </defs>
  <rect id="rect4138" class="cls-4" x="34.08" y="24.96" width="880.91" height="427.03"/>
  <path id="path3486" class="cls-5" d="M363.84,259.92c9.68,0,16.9-1.81,21.47-5.39,4.52-3.54,7.64-9.66,9.28-18.21,1.53-7.99.94-13.57-1.73-16.58-2.73-3.07-8.64-4.63-17.56-4.63h-15.46l-8.57,44.8h12.57ZM313.26,315.11c-.72,0-1.4-.33-1.86-.89-.46-.56-.64-1.3-.51-2.02l22.72-118.73c.22-1.15,1.21-1.98,2.36-1.98h48.96c15.39,0,26.84,4.24,34.04,12.62,7.24,8.42,9.47,20.18,6.64,34.96-1.15,6.02-3.13,11.62-5.89,16.63-2.76,5.01-6.4,9.65-10.84,13.79-5.31,5.04-11.31,8.7-17.83,10.85-6.42,2.12-14.66,3.2-24.5,3.2h-19.83l-5.66,29.59c-.22,1.15-1.21,1.98-2.36,1.98h-25.46,0Z"/>
  <path id="path3494" class="cls-5" d="M486,283.54c-.71,0-1.38-.33-1.83-.89-.45-.56-.63-1.3-.5-2.02l9.92-52.53c.94-5,.71-8.58-.65-10.1-.84-.93-3.35-2.48-10.77-2.48h-17.97l-12.47,66.04c-.22,1.15-1.19,1.98-2.33,1.98h-24.94c-.71,0-1.38-.33-1.83-.89-.45-.56-.63-1.3-.5-2.02l22.43-118.73c.22-1.15,1.19-1.98,2.33-1.98h24.94c.71,0,1.38.33,1.83.89.45.56.63,1.3.5,2.02l-5.41,28.66h19.33c14.73,0,24.72,2.67,30.53,8.17,5.93,5.61,7.78,14.57,5.5,26.65l-10.43,55.25c-.22,1.15-1.19,1.98-2.33,1.98h-25.33Z"/>
  <path id="path3502" class="cls-5" d="M570.01,259.92c10.05,0,17.55-1.81,22.29-5.39,4.7-3.54,7.94-9.66,9.64-18.21,1.58-7.99.98-13.57-1.79-16.58-2.84-3.07-8.97-4.63-18.23-4.63h-16.06l-8.9,44.8h13.05ZM517.5,315.11c-.75,0-1.45-.33-1.93-.89-.47-.56-.67-1.3-.53-2.02l23.59-118.73c.23-1.15,1.26-1.98,2.45-1.98h50.84c15.98,0,27.87,4.24,35.35,12.62,7.52,8.41,9.84,20.18,6.9,34.96-1.2,6.02-3.25,11.62-6.11,16.63-2.86,5.01-6.65,9.65-11.25,13.79-5.51,5.04-11.75,8.7-18.52,10.85-6.66,2.12-15.22,3.2-25.44,3.2h-20.59l-5.88,29.59c-.23,1.15-1.26,1.98-2.45,1.98h-26.44Z"/>
  <g id="g3438">
    <g id="g3440">
      <g class="cls-9">
        <g id="g3442">
          <g id="g3448">
            <g id="g3450">
              <path id="path3462" class="cls-6" d="M65.02,710.6c0,122.5,188.79,221.81,421.67,221.81h0c232.88,0,421.67-99.31,421.67-221.81h0c0-122.5-188.79-221.81-421.67-221.81h0c-232.88,0-421.67,99.31-421.67,221.81"/>
            </g>
          </g>
        </g>
      </g>
    </g>
    <g id="g3464">
      <g class="cls-8">
        <g id="g3466">
          <g id="g3472">
            <path id="path3474" class="cls-7" d="M486.68,915.94c223.78,0,405.19-91.94,405.19-205.34s-181.41-205.34-405.19-205.34-405.19,91.94-405.19,205.34,181.41,205.34,405.19,205.34"/>
          </g>
        </g>
      </g>
    </g>
    <g id="g3476">
      <g class="cls-1">
        <g id="g3478">
          <g id="g3484">
            <path id="path3486-2" data-name="path3486" class="cls-2" d="M294.11,736.06c18.4,0,32.14-3.39,40.83-10.08,8.6-6.62,14.54-18.09,17.65-34.09,2.9-14.96,1.8-25.4-3.29-31.03-5.2-5.76-16.43-8.67-33.39-8.67h-29.41l-16.3,83.88h23.9ZM197.93,839.39c-1.36,0-2.66-.61-3.53-1.67-.87-1.05-1.22-2.44-.96-3.78l43.2-222.29c.42-2.15,2.3-3.7,4.49-3.7h93.11c29.26,0,51.05,7.95,64.74,23.62,13.76,15.76,18.01,37.78,12.63,65.46-2.19,11.28-5.96,21.75-11.2,31.13-5.24,9.39-12.18,18.07-20.61,25.82-10.09,9.44-21.51,16.29-33.91,20.32-12.21,3.98-27.88,5.99-46.59,5.99h-37.7l-10.77,55.4c-.42,2.15-2.3,3.7-4.49,3.7h-48.42Z"/>
          </g>
          <g id="g3488">
            <path id="path3490" class="cls-5" d="M290.28,656.75h25.63c20.47,0,27.58,4.49,29.99,7.17,4.01,4.44,4.76,13.81,2.19,27.1-2.89,14.87-8.26,25.41-15.95,31.33-7.87,6.06-20.67,9.13-38.04,9.13h-18.35l14.52-74.73ZM334.25,603.37h-93.12c-4.38,0-8.15,3.11-8.98,7.4l-43.2,222.29c-.52,2.68.18,5.46,1.92,7.57,1.74,2.11,4.33,3.33,7.06,3.33h48.42c4.38,0,8.15-3.11,8.98-7.4l10.05-51.69h33.93c19.19,0,35.34-2.09,48.01-6.22,13.03-4.23,25.01-11.41,35.62-21.33,8.77-8.07,16-17.13,21.47-26.93,5.48-9.8,9.41-20.73,11.69-32.49,5.67-29.14,1.06-52.47-13.68-69.34-14.6-16.71-37.54-25.19-68.18-25.19M264.66,740.63h29.45c19.52,0,34.07-3.68,43.62-11.03,9.56-7.36,16-19.64,19.35-36.84,3.2-16.52,1.74-28.18-4.38-34.97-6.13-6.79-18.39-10.19-36.79-10.19h-33.18l-18.08,93.03M334.25,612.52c28.01,0,48.45,7.35,61.29,22.05,12.84,14.7,16.71,35.23,11.59,61.58-2.11,10.85-5.68,20.78-10.7,29.77-5.03,9-11.59,17.22-19.71,24.68-9.67,9.05-20.41,15.5-32.23,19.34-11.82,3.85-26.87,5.77-45.18,5.77h-41.48l-11.49,59.1h-48.42l43.2-222.29h93.12"/>
          </g>
          <g id="g3492">
            <path id="path3494-2" data-name="path3494" class="cls-2" d="M522.65,780.29c-1.37,0-2.66-.61-3.53-1.67-.87-1.05-1.22-2.44-.96-3.78l19.11-98.35c1.82-9.35,1.37-16.07-1.26-18.9-1.61-1.73-6.45-4.64-20.75-4.64h-34.62l-24.03,123.64c-.42,2.15-2.3,3.7-4.49,3.7h-48.04c-1.37,0-2.66-.61-3.53-1.67-.87-1.05-1.22-2.44-.96-3.78l43.2-222.29c.42-2.15,2.3-3.7,4.49-3.7h48.04c1.37,0,2.66.61,3.53,1.66.87,1.06,1.22,2.44.96,3.78l-10.43,53.65h37.25c28.37,0,47.62,5,58.82,15.29,11.42,10.5,14.99,27.29,10.6,49.9l-20.1,103.44c-.42,2.15-2.3,3.7-4.49,3.7h-48.8Z"/>
          </g>
          <g id="g3496">
            <path id="path3498" class="cls-5" d="M495.32,544.27h-48.04c-4.38,0-8.15,3.11-8.98,7.4l-43.2,222.29c-.52,2.68.18,5.46,1.92,7.57s4.33,3.33,7.06,3.33h48.04c4.38,0,8.15-3.11,8.98-7.4l23.31-119.94h30.85c14.28,0,17.28,3.05,17.4,3.18.87.93,2.01,5.25.13,14.92l-19.11,98.35c-.52,2.68.18,5.46,1.92,7.57,1.74,2.11,4.33,3.33,7.06,3.33h48.8c4.38,0,8.15-3.11,8.98-7.4l20.1-103.44c4.72-24.28.68-42.5-11.99-54.14-12.09-11.1-32.34-16.5-61.92-16.5h-31.7l9.37-48.2c.52-2.68-.18-5.46-1.92-7.57-1.74-2.11-4.33-3.33-7.06-3.33M495.32,553.42l-11.49,59.1h42.8c26.93,0,45.5,4.7,55.73,14.09,10.22,9.39,13.29,24.62,9.2,45.66l-20.1,103.44h-48.8l19.11-98.35c2.17-11.19,1.38-18.82-2.4-22.89-3.78-4.07-11.81-6.11-24.1-6.11h-38.4l-24.75,127.35h-48.04l43.2-222.29h48.04"/>
          </g>
          <g id="g3500">
            <path id="path3502-2" data-name="path3502" class="cls-2" d="M672.06,736.06c18.4,0,32.14-3.39,40.83-10.08,8.6-6.62,14.54-18.09,17.65-34.09,2.9-14.96,1.8-25.4-3.29-31.03-5.2-5.76-16.43-8.67-33.39-8.67h-29.41l-16.3,83.88h23.9ZM575.88,839.39c-1.36,0-2.66-.61-3.53-1.67-.87-1.05-1.22-2.44-.96-3.78l43.2-222.29c.42-2.15,2.3-3.7,4.49-3.7h93.11c29.27,0,51.05,7.95,64.74,23.62,13.76,15.75,18.01,37.78,12.63,65.46-2.19,11.28-5.96,21.75-11.2,31.13-5.24,9.39-12.18,18.07-20.61,25.82-10.09,9.44-21.51,16.29-33.91,20.32-12.21,3.98-27.88,5.99-46.59,5.99h-37.71l-10.76,55.4c-.42,2.15-2.3,3.7-4.49,3.7h-48.42Z"/>
          </g>
          <g id="g3504">
            <path id="path3506" class="cls-5" d="M668.23,656.75h25.63c20.47,0,27.58,4.49,29.99,7.17,4.01,4.44,4.77,13.81,2.19,27.1-2.89,14.87-8.26,25.41-15.95,31.34-7.87,6.06-20.67,9.13-38.04,9.13h-18.35l14.52-74.73ZM712.2,603.37h-93.11c-4.38,0-8.15,3.11-8.98,7.4l-43.2,222.29c-.52,2.68.18,5.46,1.92,7.57,1.74,2.11,4.33,3.33,7.06,3.33h48.42c4.38,0,8.15-3.11,8.98-7.4l10.05-51.69h33.93c19.19,0,35.34-2.09,48.01-6.22,13.03-4.23,25.01-11.41,35.62-21.33,8.77-8.07,16-17.13,21.47-26.93,5.48-9.8,9.41-20.73,11.69-32.49,5.67-29.14,1.06-52.47-13.68-69.34-14.6-16.71-37.54-25.18-68.18-25.18M642.61,740.63h29.45c19.52,0,34.07-3.68,43.62-11.03,9.56-7.36,16-19.64,19.35-36.84,3.21-16.52,1.75-28.18-4.38-34.97-6.13-6.79-18.39-10.19-36.79-10.19h-33.18l-18.08,93.03M712.2,612.52c28.01,0,48.45,7.35,61.29,22.05,12.84,14.7,16.71,35.23,11.59,61.58-2.11,10.85-5.68,20.78-10.7,29.77-5.03,9-11.59,17.22-19.71,24.68-9.67,9.05-20.41,15.5-32.23,19.34-11.82,3.85-26.87,5.77-45.18,5.77h-41.48l-11.48,59.1h-48.42l43.2-222.29h93.11"/>
          </g>
        </g>
      </g>
    </g>
  </g>
</svg>